<?xml version="1.0" standalone="no"?>
<!DOCTYPE svg PUBLIC "-//W3C//DTD SVG 20010904//EN"
 "http://www.w3.org/TR/2001/REC-SVG-20010904/DTD/svg10.dtd">
<svg version="1.0" xmlns="http://www.w3.org/2000/svg"
 width="512.000000pt" height="512.000000pt" viewBox="0 0 512.000000 512.000000"
 preserveAspectRatio="xMidYMid meet">
<metadata>
Created by potrace 1.11, written by Peter Selinger 2001-2013
</metadata>
<g transform="translate(0.000000,512.000000) scale(0.100000,-0.100000)"
fill="#000000" stroke="none">
<path d="M201 4130 c-8 -6 -9 -3139 -1 -3141 13 -3 4706 -5 4716 -2 8 3 10
453 10 1576 l-1 1572 -2358 0 c-1298 0 -2362 -2 -2366 -5z m4394 -1570 l0
-1245 -2032 -1 -2033 -1 -1 31 c-3 93 -4 2433 -1 2446 3 14 222 15 2035 15
l2032 0 0 -1245z"/>
<path d="M4238 3485 c-1 -1 -37 -5 -78 -9 -41 -3 -84 -7 -96 -10 -61 -13 -177
-52 -240 -81 -256 -117 -475 -374 -545 -640 -23 -89 -21 -80 -44 -189 -46
-221 -126 -356 -212 -356 -96 0 -135 64 -333 550 -51 124 -120 257 -166 321
-138 190 -420 247 -627 125 -25 -14 -74 -57 -110 -96 l-65 -71 -45 58 c-87
114 -212 217 -342 282 -150 75 -271 106 -415 106 l-65 0 -1 -155 -2 -156 25 2
c14 0 55 -5 92 -12 369 -70 617 -415 526 -731 -29 -99 -75 -173 -165 -264 -69
-69 -102 -94 -171 -127 -70 -35 -213 -76 -247 -71 -4 1 -18 1 -32 0 l-25 -1 0
-157 0 -158 70 3 c132 4 311 51 411 107 305 170 481 412 528 729 47 308 211
494 347 393 44 -32 101 -152 181 -377 43 -122 136 -336 174 -400 107 -183 300
-265 532 -224 124 21 217 76 290 172 13 17 27 32 31 32 4 0 14 -12 23 -27 45
-77 197 -209 316 -276 90 -51 218 -100 303 -117 62 -12 182 -15 199 -5 6 4 10
62 10 154 l0 149 -80 11 c-161 24 -280 83 -392 194 -234 230 -242 547 -21 782
114 121 271 199 443 219 25 3 46 5 48 5 1 1 2 70 2 155 0 123 -3 155 -14 159
-8 3 -16 4 -18 2z"/>
</g>
</svg>
